<?xml version="1.0" encoding="UTF-8"?>
<!DOCTYPE svg PUBLIC "-//W3C//DTD SVG 1.1//EN" "http://www.w3.org/Graphics/SVG/1.1/DTD/svg11.dtd">
<!-- Creator: CorelDRAW 2019 (64-Bit) -->
<svg xmlns="http://www.w3.org/2000/svg" xml:space="preserve" width="152.296mm" height="49.6418mm" version="1.1" style="shape-rendering:geometricPrecision; text-rendering:geometricPrecision; image-rendering:optimizeQuality; fill-rule:evenodd; clip-rule:evenodd"
viewBox="0 0 1368.86 446.19"
 xmlns:xlink="http://www.w3.org/1999/xlink"
 xmlns:xodm="http://www.corel.com/coreldraw/odm/2003">
 <defs>
  <style type="text/css">
   <![CDATA[
    .fil2 {fill:#FEFEFE}
    .fil8 {fill:#243650}
    .fil3 {fill:#30486A}
    .fil7 {fill:#651138}
    .fil4 {fill:#87164A}
    .fil0 {fill:#243650;fill-rule:nonzero}
    .fil6 {fill:url(#id2)}
    .fil5 {fill:url(#id3)}
    .fil1 {fill:url(#id4);fill-rule:nonzero}
   ]]>
  </style>
     <mask id="id0">
  <linearGradient id="id1" gradientUnits="userSpaceOnUse" x1="779.36" y1="84.48" x2="781.89" y2="265.28">
   <stop offset="0" style="stop-opacity:1; stop-color:white"/>
   <stop offset="1" style="stop-opacity:0; stop-color:white"/>
  </linearGradient>
      <rect style="fill:url(#id1)" x="428.49" y="223.04" width="938.44" height="161.27"/>
     </mask>
  <linearGradient id="id2" gradientUnits="userSpaceOnUse" x1="117.37" y1="209.61" x2="349.56" y2="496.69">
   <stop offset="0" style="stop-opacity:1; stop-color:#FFC800"/>
   <stop offset="1" style="stop-opacity:1; stop-color:#F133C4"/>
  </linearGradient>
  <linearGradient id="id3" gradientUnits="userSpaceOnUse" x1="-46.45" y1="121.28" x2="330.7" y2="329.55">
   <stop offset="0" style="stop-opacity:1; stop-color:#753EBA"/>
   <stop offset="0.341176" style="stop-opacity:1; stop-color:#259ABA"/>
   <stop offset="0.690196" style="stop-opacity:1; stop-color:#5EE4C6"/>
   <stop offset="0.988235" style="stop-opacity:1; stop-color:#A2FFD2"/>
   <stop offset="1" style="stop-opacity:1; stop-color:#A2FFD2"/>
  </linearGradient>
  <linearGradient id="id4" gradientUnits="userSpaceOnUse" xlink:href="#id2" x1="1496.95" y1="347.16" x2="485.07" y2="334.9">
  </linearGradient>
 </defs>
 <g id="Layer_x0020_1">
  <metadata id="CorelCorpID_0Corel-Layer"/>
  <g id="_1631222620688">
   <g>
    <path class="fil0" d="M505.84 177.06c0,4.83 -0.77,8.11 -2.31,9.85 -1.54,1.73 -4.54,2.6 -9,2.6l-27.22 0c-4.4,0 -7.39,-0.87 -9,-2.6 -1.6,-1.73 -2.4,-5.02 -2.4,-9.85l0 -27.75c0,-4.83 0.8,-8.11 2.4,-9.85 1.6,-1.73 4.6,-2.6 9,-2.6l27.22 0c5.53,0 8.95,1.53 10.27,4.59 0.69,1.63 1.04,5.92 1.04,12.86l-8.1 1.63 0 -11.94 -33.72 0 0 38.16 33.72 0 0 -13.16 8.1 1.84 0 6.22zm74.05 12.45l-8.1 0 0 -23.88 -38.34 0 0 23.88 -8.1 0 0 -52.65 8.1 0 0 21.53 38.34 0 0 -21.53 8.1 0 0 52.65zm77.63 0l-12.06 0 -19.78 -20.51 -14.32 0 0 20.51 -8.1 0 0 -52.65 39.18 0c3.52,0 6.11,0.78 7.77,2.35 1.66,1.56 2.5,4.18 2.5,7.86l0 11.73c0,5.24 -1.88,8.43 -5.65,9.59 -1.19,0.41 -5.12,0.61 -11.77,0.61l22.23 20.51zm-13 -32.75l0 -7.65c0,-2.04 -0.39,-3.45 -1.18,-4.23 -0.79,-0.78 -2.15,-1.17 -4.1,-1.17l-27.88 0 0 18.47 27.88 0c1.95,0 3.31,-0.37 4.1,-1.12 0.78,-0.75 1.18,-2.18 1.18,-4.29zm84.32 20.3c0,4.83 -0.78,8.11 -2.35,9.85 -1.57,1.73 -4.55,2.6 -8.95,2.6l-33.63 0c-4.4,0 -7.39,-0.87 -9,-2.6 -1.6,-1.73 -2.4,-5.02 -2.4,-9.85l0 -27.75c0,-4.83 0.8,-8.11 2.4,-9.85 1.6,-1.73 4.6,-2.6 9,-2.6l33.63 0c4.4,0 7.38,0.87 8.95,2.6 1.57,1.73 2.35,5.02 2.35,9.85l0 27.75zm-8.01 5.1l0 -38.16 -40.22 0 0 38.16 40.22 0zm90.53 7.35l-7.44 0 0 -35.51c0,0 0.12,-2.58 0.38,-7.75 -1.07,2.45 -2.04,4.35 -2.92,5.71l-18.56 29.28 -2.07 0 -19.31 -28.47c-1.51,-2.24 -2.61,-4.42 -3.3,-6.53 0.25,2.04 0.38,4.22 0.38,6.53l0 36.73 -6.88 0 0 -52.65 6.59 0 23.64 34.28 22.04 -34.28 7.44 0 0 52.65zm70.66 0l-47.19 0 0 -52.65 46.81 0 0 7.04 -38.71 0 0 14.69 23.64 0 0 6.94 -23.64 0 0 16.73 39.09 0 0 7.24zm108.14 -26.63c0,10.27 -3.36,17.79 -10.08,22.55 -3.83,2.72 -10.05,4.08 -18.65,4.08l-26.75 0 0 -52.65 26.75 0c8.54,0 14.76,1.36 18.65,4.08 3.27,2.31 5.78,5.51 7.54,9.59 1.7,3.74 2.54,7.86 2.54,12.35zm-8.29 0c0,-7.28 -2.01,-12.38 -6.03,-15.3 -3.27,-2.38 -8.45,-3.57 -15.54,-3.57l-17.52 0 0 38.16 17.52 0c7.28,0 12.53,-1.22 15.73,-3.67 3.89,-2.92 5.84,-8.13 5.84,-15.61zm82.71 14.18c0,4.83 -0.78,8.11 -2.35,9.85 -1.57,1.73 -4.55,2.6 -8.95,2.6l-33.63 0c-4.4,0 -7.39,-0.87 -9,-2.6 -1.6,-1.73 -2.4,-5.02 -2.4,-9.85l0 -27.75c0,-4.83 0.8,-8.11 2.4,-9.85 1.6,-1.73 4.6,-2.6 9,-2.6l33.63 0c4.4,0 7.38,0.87 8.95,2.6 1.57,1.73 2.35,5.02 2.35,9.85l0 27.75zm-8.01 5.1l0 -38.16 -40.22 0 0 38.16 40.22 0zm82.34 -5.1c0,4.83 -0.78,8.11 -2.35,9.85 -1.57,1.73 -4.55,2.6 -8.95,2.6l-28.82 0c-4.4,0 -7.39,-0.87 -9,-2.6 -1.6,-1.73 -2.4,-5.02 -2.4,-9.85l0 -40.2 8.1 0 0 45.3 35.42 0 0 -45.3 8.01 0 0 40.2zm73.2 2.14c0,6.87 -4.49,10.3 -13.47,10.3l-36.26 0 0 -52.65 39.18 0c3.52,0 6.11,0.78 7.77,2.35 1.66,1.56 2.5,4.18 2.5,7.86l0 6.12c0,5.31 -2.7,8.3 -8.1,8.98 5.59,0.75 8.38,4.18 8.38,10.3l0 6.73zm-8.57 -25.41l0 -5.3c0,-1.9 -0.39,-3.15 -1.18,-3.72 -0.78,-0.58 -2.06,-0.87 -3.81,-0.87l-28.07 0 0 14.59 28.07 0c3.33,0 4.99,-1.56 4.99,-4.69zm0.38 22.24l0 -4.39c0,-2.31 -0.38,-3.95 -1.13,-4.9 -0.75,-0.95 -2.17,-1.43 -4.24,-1.43l-28.07 0 0 16.94 28.07 0c2.07,0 3.48,-0.46 4.24,-1.38 0.75,-0.92 1.13,-2.53 1.13,-4.85zm73.67 13.47l-44.93 0 0 -52.65 8.1 0 0 45.3 36.83 0 0 7.35zm61.9 0l-47.19 0 0 -52.65 46.81 0 0 7.04 -38.71 0 0 14.69 23.64 0 0 6.94 -23.64 0 0 16.73 39.09 0 0 7.24z"/>
    <path class="fil1" d="M577.78 294.11l-73.58 0 0 28 36.69 0c0,19.51 -17.19,30.71 -34.57,30.71 -22.4,0 -40.56,-22.02 -40.56,-49.06 0,-27.62 18.15,-49.83 40.56,-49.83 14.1,0 26.27,5.6 35.54,20.47l23.76 -26.07c-13.91,-16.8 -33.41,-27.23 -61.42,-27.23 -44.81,0 -77.64,36.89 -77.64,82.66 0,45.58 34.76,82.47 77.64,82.47 31.29,0 64.89,-17.19 73.58,-57.55l0 -34.57zm52.34 -70.11l-36.31 0 0 159.33 91.16 0 0 -31.87 -54.85 0 0 -127.47zm156.63 0l-33.6 0 -64.31 159.33 39.01 0 11.78 -31.87 60.64 0 11.78 31.87 39.01 0 -64.31 -159.33zm1.16 95.6l-35.92 0 17.77 -46.35 0.39 0 17.77 46.35zm203.18 -95.6l-131.14 0 0 31.87 67.6 0 -78.8 127.47 137.12 0 0 -31.87 -73.78 0 78.99 -127.47zm50.99 0l-36.31 0 0 159.33 36.31 0 0 -159.33zm59.48 60.45l0.39 0 63.35 98.88 36.31 0 0 -159.33 -36.31 0 0 98.88 -0.39 0 -63.35 -98.88 -36.31 0 0 159.33 36.31 0 0 -98.88zm267.3 9.66l-73.58 0 0 28 36.69 0c0,19.51 -17.19,30.71 -34.57,30.71 -22.4,0 -40.56,-22.02 -40.56,-49.06 0,-27.62 18.15,-49.83 40.56,-49.83 14.1,0 26.27,5.6 35.54,20.47l23.76 -26.07c-13.91,-16.8 -33.41,-27.23 -61.42,-27.23 -44.81,0 -77.64,36.89 -77.64,82.66 0,45.58 34.76,82.47 77.64,82.47 31.29,0 64.89,-17.19 73.58,-57.55l0 -34.57z"/>
    <path class="fil2" style="mask:url(#id0)" d="M575.86 296.04l-69.73 0 0 24.15 36.69 0 0 1.93c0,20.17 -17.53,32.64 -36.5,32.64 -4.08,0 -8.1,-0.69 -11.95,-2.04 -19.96,-7.01 -30.54,-28.79 -30.54,-48.94 0,-20.45 10.55,-42.9 30.99,-49.85 3.71,-1.26 7.58,-1.91 11.49,-1.91 15.59,0 27.21,6.66 35.79,19.26l20.94 -22.98c-15.38,-17.82 -35.36,-25.26 -58.85,-25.26 -44.85,0 -75.71,37.27 -75.71,80.73 0,28.16 13.89,55.18 38.15,69.95 11.37,6.92 24.24,10.59 37.56,10.59 15.57,0 31.32,-4.34 44.16,-13.29 14.71,-10.25 23.7,-25.15 27.49,-42.54l0 -32.44zm52.34 -70.11l-32.45 0 0 155.48 87.3 0 0 -28.01 -54.85 0 0 -127.47zm157.26 0l-31 0 -62.76 155.48 34.81 0 11.78 -31.87 63.33 0 11.78 31.87 34.81 0 -62.76 -155.48zm5.27 95.6l-41.53 0 19.25 -50.21 3.04 0 19.25 50.21zm61.49 59.88l131.74 0 0 -28.01 -75.31 0 78.99 -127.47 -125.75 0 0 28.01 69.13 0 -78.8 127.47zm187.94 -155.48l-32.45 0 0 155.48 32.45 0 0 -155.48zm126.2 155.48l33.33 0 0 -155.48 -32.45 0 0 98.88 -3.37 0 -63.35 -98.88 -33.33 0 0 155.48 32.45 0 0 -98.88 3.37 0 63.35 98.88zm200.58 -85.37l-69.73 0 0 24.15 36.69 0 0 1.93c0,20.17 -17.53,32.64 -36.5,32.64 -4.08,0 -8.1,-0.69 -11.95,-2.04 -19.96,-7.01 -30.54,-28.79 -30.54,-48.94 0,-20.45 10.55,-42.9 30.99,-49.85 3.71,-1.26 7.58,-1.91 11.49,-1.91 15.59,0 27.21,6.66 35.79,19.26l20.94 -22.98c-15.38,-17.82 -35.36,-25.26 -58.85,-25.26 -44.85,0 -75.71,37.27 -75.71,80.73 0,28.16 13.89,55.18 38.15,69.95 11.37,6.92 24.24,10.59 37.56,10.59 15.57,0 31.33,-4.34 44.16,-13.29 14.71,-10.25 23.7,-25.15 27.49,-42.54l0 -32.44z"/>
   </g>
   <path class="fil3" d="M82.72 210.5l102.35 -95.94 37.18 -34.82 24.3 -22.78c-19.31,-18.29 -37.66,-15.4 -55.53,1.44l-144.2 127.72 -5.31 146.32 41.2 -58.88 0 -63.05z"/>
   <path class="fil4" d="M290.33 97.23l0 266.33 -142.11 0 -41.84 39 227.4 3.85 -4.67 -233.12c-0.65,-25.51 -7.08,-46.21 -29.13,-66.9l-9.65 -9.15z"/>
   <path class="fil5" d="M334.26 32.26l-164.64 69.79 31.22 25.19 -152.73 189.16 0 -120.81 141.46 -132.69c17.86,-16.69 36.85,-22.14 56.97,-5.94l-60.03 -56.96 -186.52 174.88 0 271.31 334.26 -413.93z"/>
   <path class="fil6" d="M24.95 446.19l348.1 0 0 -271.31 -73.07 -68.5c18.51,18.77 24.94,41.39 24.94,66.9l0 224.95 -204.7 0 91.25 -112.95 30.42 24.38 32.67 -172.79 -249.61 309.32z"/>
   <path class="fil7" d="M290.33 97.23c23.66,27.92 23.34,53.43 23.34,76.05l0 213.71 -184.27 0 -9.18 11.24 204.7 0 0 -224.95c0,-25.51 -6.43,-48.13 -24.94,-66.9l-9.65 -9.15z"/>
   <path class="fil8" d="M246.56 56.96c-20.12,-16.2 -39.11,-10.75 -56.97,5.94l-141.46 132.69 0 120.81 11.27 -13.96 0 -102.03 137.92 -129.32c18.03,-16.84 34.44,-23.42 49.25,-14.12l0 0z"/>
  </g>
 </g>
</svg>
