<?xml version="1.0" encoding="UTF-8"?>
<!DOCTYPE svg PUBLIC "-//W3C//DTD SVG 1.1//EN" "http://www.w3.org/Graphics/SVG/1.1/DTD/svg11.dtd">
<!-- Creator: CorelDRAW 2019 (64-Bit) -->
<svg xmlns="http://www.w3.org/2000/svg" xml:space="preserve" width="105.804mm" height="34.4875mm" version="1.1" style="shape-rendering:geometricPrecision; text-rendering:geometricPrecision; image-rendering:optimizeQuality; fill-rule:evenodd; clip-rule:evenodd"
viewBox="0 0 679.31 221.43"
 xmlns:xlink="http://www.w3.org/1999/xlink"
 xmlns:xodm="http://www.corel.com/coreldraw/odm/2003">
 <defs>
  <style type="text/css">
   <![CDATA[
    .fil2 {fill:#FEFEFE}
    .fil8 {fill:#293C54}
    .fil3 {fill:#30486A}
    .fil7 {fill:#651138}
    .fil4 {fill:#87164A}
    .fil0 {fill:white;fill-rule:nonzero}
    .fil5 {fill:url(#id2)}
    .fil6 {fill:url(#id3)}
    .fil1 {fill:url(#id4);fill-rule:nonzero}
   ]]>
  </style>
     <mask id="id0">
  <linearGradient id="id1" gradientUnits="userSpaceOnUse" x1="386.77" y1="41.92" x2="388.02" y2="131.65">
   <stop offset="0" style="stop-opacity:1; stop-color:white"/>
   <stop offset="1" style="stop-opacity:0; stop-color:white"/>
  </linearGradient>
      <rect style="fill:url(#id1)" x="212.64" y="110.69" width="465.71" height="80.03"/>
     </mask>
  <linearGradient id="id2" gradientUnits="userSpaceOnUse" x1="-23.05" y1="60.18" x2="164.11" y2="163.54">
   <stop offset="0" style="stop-opacity:1; stop-color:#753EBA"/>
   <stop offset="0.341176" style="stop-opacity:1; stop-color:#259ABA"/>
   <stop offset="0.690196" style="stop-opacity:1; stop-color:#5EE4C6"/>
   <stop offset="0.988235" style="stop-opacity:1; stop-color:#A2FFD2"/>
   <stop offset="1" style="stop-opacity:1; stop-color:#A2FFD2"/>
  </linearGradient>
  <linearGradient id="id3" gradientUnits="userSpaceOnUse" x1="58.24" y1="104.02" x2="173.47" y2="246.49">
   <stop offset="0" style="stop-opacity:1; stop-color:#FFC800"/>
   <stop offset="1" style="stop-opacity:1; stop-color:#F133C4"/>
  </linearGradient>
  <linearGradient id="id4" gradientUnits="userSpaceOnUse" xlink:href="#id3" x1="742.88" y1="172.28" x2="240.72" y2="166.2">
  </linearGradient>
 </defs>
 <g id="Layer_x0020_1">
  <metadata id="CorelCorpID_0Corel-Layer"/>
  <g id="_1631223711888">
   <g>
    <path class="fil0" d="M251.03 87.87c0,2.4 -0.38,4.02 -1.15,4.89 -0.76,0.86 -2.25,1.29 -4.46,1.29l-13.51 0c-2.18,0 -3.67,-0.43 -4.46,-1.29 -0.79,-0.86 -1.19,-2.49 -1.19,-4.89l0 -13.77c0,-2.4 0.4,-4.03 1.19,-4.89 0.79,-0.86 2.28,-1.29 4.46,-1.29l13.51 0c2.74,0 4.44,0.76 5.09,2.28 0.34,0.81 0.51,2.94 0.51,6.38l-4.02 0.81 0 -5.92 -16.73 0 0 18.94 16.73 0 0 -6.53 4.02 0.91 0 3.09zm36.75 6.18l-4.02 0 0 -11.85 -19.02 0 0 11.85 -4.02 0 0 -26.13 4.02 0 0 10.68 19.02 0 0 -10.68 4.02 0 0 26.13zm38.52 0l-5.98 0 -9.82 -10.18 -7.1 0 0 10.18 -4.02 0 0 -26.13 19.45 0c1.75,0 3.03,0.39 3.86,1.16 0.83,0.78 1.24,2.08 1.24,3.9l0 5.82c0,2.6 -0.94,4.19 -2.81,4.76 -0.59,0.2 -2.54,0.3 -5.84,0.3l11.03 10.18zm-6.45 -16.25l0 -3.8c0,-1.01 -0.2,-1.71 -0.58,-2.1 -0.39,-0.39 -1.07,-0.58 -2.03,-0.58l-13.84 0 0 9.16 13.84 0c0.97,0 1.64,-0.19 2.03,-0.56 0.39,-0.37 0.58,-1.08 0.58,-2.13zm41.84 10.08c0,2.4 -0.39,4.02 -1.17,4.89 -0.78,0.86 -2.26,1.29 -4.44,1.29l-16.69 0c-2.18,0 -3.67,-0.43 -4.46,-1.29 -0.79,-0.86 -1.19,-2.49 -1.19,-4.89l0 -13.77c0,-2.4 0.4,-4.03 1.19,-4.89 0.79,-0.86 2.28,-1.29 4.46,-1.29l16.69 0c2.18,0 3.66,0.43 4.44,1.29 0.78,0.86 1.17,2.49 1.17,4.89l0 13.77zm-3.97 2.53l0 -18.94 -19.96 0 0 18.94 19.96 0zm44.93 3.65l-3.69 0 0 -17.62c0,0 0.06,-1.28 0.19,-3.85 -0.53,1.22 -1.01,2.16 -1.45,2.84l-9.21 14.53 -1.03 0 -9.58 -14.13c-0.75,-1.11 -1.29,-2.19 -1.64,-3.24 0.12,1.01 0.19,2.09 0.19,3.24l0 18.23 -3.41 0 0 -26.13 3.27 0 11.73 17.01 10.94 -17.01 3.69 0 0 26.13zm35.06 0l-23.42 0 0 -26.13 23.23 0 0 3.49 -19.21 0 0 7.29 11.73 0 0 3.44 -11.73 0 0 8.3 19.4 0 0 3.59zm53.67 -13.22c0,5.1 -1.67,8.83 -5,11.19 -1.9,1.35 -4.99,2.03 -9.26,2.03l-13.27 0 0 -26.13 13.27 0c4.24,0 7.32,0.67 9.26,2.03 1.62,1.15 2.87,2.73 3.74,4.76 0.84,1.86 1.26,3.9 1.26,6.13zm-4.11 0c0,-3.61 -1,-6.14 -2.99,-7.6 -1.62,-1.18 -4.19,-1.77 -7.71,-1.77l-8.69 0 0 18.94 8.69 0c3.61,0 6.22,-0.61 7.81,-1.82 1.93,-1.45 2.9,-4.03 2.9,-7.75zm41.05 7.04c0,2.4 -0.39,4.02 -1.17,4.89 -0.78,0.86 -2.26,1.29 -4.44,1.29l-16.69 0c-2.18,0 -3.67,-0.43 -4.46,-1.29 -0.79,-0.86 -1.19,-2.49 -1.19,-4.89l0 -13.77c0,-2.4 0.4,-4.03 1.19,-4.89 0.79,-0.86 2.28,-1.29 4.46,-1.29l16.69 0c2.18,0 3.66,0.43 4.44,1.29 0.78,0.86 1.17,2.49 1.17,4.89l0 13.77zm-3.97 2.53l0 -18.94 -19.96 0 0 18.94 19.96 0zm40.86 -2.53c0,2.4 -0.39,4.02 -1.17,4.89 -0.78,0.86 -2.26,1.29 -4.44,1.29l-14.3 0c-2.18,0 -3.67,-0.43 -4.46,-1.29 -0.79,-0.86 -1.19,-2.49 -1.19,-4.89l0 -19.95 4.02 0 0 22.48 17.57 0 0 -22.48 3.97 0 0 19.95zm36.33 1.06c0,3.41 -2.23,5.11 -6.68,5.11l-18 0 0 -26.13 19.45 0c1.75,0 3.03,0.39 3.86,1.16 0.83,0.78 1.24,2.08 1.24,3.9l0 3.04c0,2.63 -1.34,4.12 -4.02,4.46 2.77,0.37 4.16,2.08 4.16,5.11l0 3.34zm-4.25 -12.61l0 -2.63c0,-0.95 -0.2,-1.56 -0.58,-1.85 -0.39,-0.29 -1.02,-0.43 -1.89,-0.43l-13.93 0 0 7.24 13.93 0c1.65,0 2.48,-0.78 2.48,-2.33zm0.19 11.04l0 -2.18c0,-1.15 -0.19,-1.96 -0.56,-2.43 -0.37,-0.47 -1.07,-0.71 -2.1,-0.71l-13.93 0 0 8.41 13.93 0c1.03,0 1.73,-0.23 2.1,-0.68 0.37,-0.46 0.56,-1.26 0.56,-2.41zm36.56 6.68l-22.3 0 0 -26.13 4.02 0 0 22.48 18.28 0 0 3.65zm30.72 0l-23.42 0 0 -26.13 23.23 0 0 3.49 -19.21 0 0 7.29 11.73 0 0 3.44 -11.73 0 0 8.3 19.4 0 0 3.59z"/>
    <path class="fil1" d="M286.73 145.96l-36.52 0 0 13.9 18.21 0c0,9.68 -8.53,15.24 -17.16,15.24 -11.12,0 -20.13,-10.93 -20.13,-24.34 0,-13.71 9.01,-24.73 20.13,-24.73 7,0 13.03,2.78 17.64,10.16l11.79 -12.94c-6.9,-8.34 -16.58,-13.51 -30.48,-13.51 -22.24,0 -38.53,18.31 -38.53,41.02 0,22.62 17.25,40.93 38.53,40.93 15.53,0 32.2,-8.53 36.52,-28.56l0 -17.16zm25.97 -34.79l-18.02 0 0 79.07 45.24 0 0 -15.81 -27.22 0 0 -63.26zm77.73 0l-16.68 0 -31.92 79.07 19.36 0 5.85 -15.81 30.09 0 5.85 15.81 19.36 0 -31.92 -79.07zm0.57 47.44l-17.83 0 8.82 -23 0.19 0 8.82 23zm100.83 -47.44l-65.08 0 0 15.81 33.55 0 -39.1 63.26 68.05 0 0 -15.81 -36.61 0 39.2 -63.26zm25.3 0l-18.02 0 0 79.07 18.02 0 0 -79.07zm29.52 30l0.19 0 31.44 49.07 18.02 0 0 -79.07 -18.02 0 0 49.07 -0.19 0 -31.44 -49.07 -18.02 0 0 79.07 18.02 0 0 -49.07zm132.65 4.79l-36.52 0 0 13.9 18.21 0c0,9.68 -8.53,15.24 -17.16,15.24 -11.12,0 -20.13,-10.93 -20.13,-24.34 0,-13.71 9.01,-24.73 20.13,-24.73 7,0 13.03,2.78 17.64,10.16l11.79 -12.94c-6.9,-8.34 -16.58,-13.51 -30.48,-13.51 -22.24,0 -38.53,18.31 -38.53,41.02 0,22.62 17.25,40.93 38.53,40.93 15.53,0 32.2,-8.53 36.52,-28.56l0 -17.16z"/>
    <path class="fil2" style="mask:url(#id0)" d="M285.78 146.91l-34.6 0 0 11.98 18.21 0 0 0.96c0,10.01 -8.7,16.2 -18.11,16.2 -2.02,0 -4.02,-0.34 -5.93,-1.01 -9.91,-3.48 -15.16,-14.29 -15.16,-24.29 0,-10.15 5.24,-21.29 15.38,-24.74 1.84,-0.63 3.76,-0.95 5.7,-0.95 7.74,0 13.5,3.31 17.76,9.56l10.39 -11.4c-7.63,-8.85 -17.55,-12.53 -29.21,-12.53 -22.26,0 -37.57,18.49 -37.57,40.06 0,13.98 6.89,27.38 18.93,34.71 5.64,3.43 12.03,5.25 18.64,5.25 7.73,0 15.55,-2.15 21.92,-6.6 7.3,-5.09 11.76,-12.48 13.64,-21.11l0 -16.1zm25.97 -34.79l-16.1 0 0 77.16 43.32 0 0 -13.9 -27.22 0 0 -63.26zm78.04 0l-15.39 0 -31.14 77.16 17.28 0 5.85 -15.81 31.43 0 5.85 15.81 17.28 0 -31.14 -77.16zm2.61 47.44l-20.61 0 9.55 -24.92 1.51 0 9.55 24.92zm30.52 29.71l65.38 0 0 -13.9 -37.37 0 39.2 -63.26 -62.4 0 0 13.9 34.31 0 -39.1 63.26zm93.27 -77.16l-16.1 0 0 77.16 16.1 0 0 -77.16zm62.63 77.16l16.54 0 0 -77.16 -16.1 0 0 49.07 -1.67 0 -31.44 -49.07 -16.54 0 0 77.16 16.1 0 0 -49.07 1.67 0 31.44 49.07zm99.54 -42.37l-34.6 0 0 11.98 18.21 0 0 0.96c0,10.01 -8.7,16.2 -18.11,16.2 -2.02,0 -4.02,-0.34 -5.93,-1.01 -9.91,-3.48 -15.16,-14.29 -15.16,-24.29 0,-10.15 5.23,-21.29 15.38,-24.74 1.84,-0.63 3.76,-0.95 5.7,-0.95 7.74,0 13.5,3.31 17.76,9.56l10.39 -11.4c-7.63,-8.85 -17.55,-12.53 -29.2,-12.53 -22.26,0 -37.57,18.49 -37.57,40.06 0,13.98 6.89,27.38 18.93,34.71 5.64,3.43 12.03,5.25 18.64,5.25 7.73,0 15.55,-2.15 21.92,-6.6 7.3,-5.09 11.76,-12.48 13.64,-21.11l0 -16.1z"/>
   </g>
   <path class="fil3" d="M41.05 104.46l50.79 -47.61 18.45 -17.28 12.06 -11.3c-9.58,-9.08 -18.69,-7.64 -27.56,0.71l-71.56 63.38 -2.64 72.61 20.45 -29.22 0 -31.29z"/>
   <path class="fil4" d="M144.08 48.25l0 132.17 -70.52 0 -20.77 19.35 112.85 1.91 -2.32 -115.69c-0.32,-12.66 -3.51,-22.93 -14.46,-33.2l-4.79 -4.54z"/>
   <path class="fil5" d="M165.88 16.01l-81.7 34.63 15.49 12.5 -75.79 93.87 0 -59.96 70.2 -65.85c8.86,-8.28 18.29,-10.99 28.27,-2.95l-29.79 -28.27 -92.56 86.79 0 134.64 165.88 -205.42z"/>
   <path class="fil6" d="M12.38 221.43l172.75 0 0 -134.64 -36.26 -34c9.19,9.31 12.38,20.54 12.38,33.2l0 111.63 -101.59 0 45.28 -56.05 15.1 12.1 16.21 -85.75 -123.87 153.51z"/>
   <path class="fil7" d="M144.08 48.25c11.74,13.85 11.58,26.52 11.58,37.74l0 106.06 -91.45 0 -4.55 5.58 101.59 0 0 -111.63c0,-12.66 -3.19,-23.89 -12.38,-33.2l-4.79 -4.54z"/>
   <path class="fil8" d="M122.36 28.27c-9.98,-8.04 -19.41,-5.34 -28.27,2.95l-70.2 65.85 0 59.96 5.59 -6.93 0 -50.64 68.44 -64.18c8.95,-8.36 17.09,-11.62 24.44,-7.01l0 0z"/>
  </g>
 </g>
</svg>
